HIERARCHY
ROOT newVegas:Hips
{
	OFFSET 0.000000 96.479958 0.000000
	CHANNELS 6 Xposition Yposition Zposition Xrotation Yrotation Zrotation
	JOINT newVegas:Pelvis
	{
		OFFSET 0.000000 0.000000 0.000000
		CHANNELS 3 Xrotation Yrotation Zrotation
		JOINT newVegas:LeftUpLeg
		{
			OFFSET 18.735201 -5.666702 -4.541200
			CHANNELS 3 Xrotation Yrotation Zrotation
			JOINT newVegas:LeftLeg
			{
				OFFSET -0.021200 -31.938179 0.493100
				CHANNELS 3 Xrotation Yrotation Zrotation
				JOINT newVegas:LeftFoot
				{
					OFFSET 0.021200 -31.938179 -4.336299
					CHANNELS 3 Xrotation Yrotation Zrotation
					JOINT newVegas:LeftToeBase
					{
						OFFSET 0.943001 -26.722000 15.023500
						CHANNELS 3 Xrotation Yrotation Zrotation
						End Site
						{
							OFFSET 0.000000 30.670183 0.000000
						}
					}
				}
				JOINT newVegas:Left_PantLeg
				{
					OFFSET 0.663870 -9.044666 -1.108900
					CHANNELS 3 Xrotation Yrotation Zrotation
					End Site
					{
						OFFSET 1.415995 20.635357 0.000000
					}
				}
			}
		}
		JOINT newVegas:RightUpLeg
		{
			OFFSET -18.735201 -5.666702 -4.541200
			CHANNELS 3 Xrotation Yrotation Zrotation
			JOINT newVegas:RightLeg
			{
				OFFSET 0.018946 -31.938133 0.493100
				CHANNELS 3 Xrotation Yrotation Zrotation
				JOINT newVegas:RightFoot
				{
					OFFSET -0.018946 -31.938126 -4.336299
					CHANNELS 3 Xrotation Yrotation Zrotation
					JOINT newVegas:RightToeBase
					{
						OFFSET -0.943001 -26.722004 15.023500
						CHANNELS 3 Xrotation Yrotation Zrotation
						End Site
						{
							OFFSET 0.000000 30.670187 0.000000
						}
					}
				}
				JOINT newVegas:Right_PantLeg
				{
					OFFSET -0.661674 -9.044716 -1.108900
					CHANNELS 3 Xrotation Yrotation Zrotation
					End Site
					{
						OFFSET -1.415958 20.635269 0.000000
					}
				}
			}
		}
	}
	JOINT newVegas:Spine
	{
		OFFSET 0.000000 10.199997 -0.299500
		CHANNELS 3 Xrotation Yrotation Zrotation
		JOINT newVegas:Spine1
		{
			OFFSET 0.000000 11.900002 -1.516600
			CHANNELS 3 Xrotation Yrotation Zrotation
			JOINT newVegas:Spine2
			{
				OFFSET 0.000000 13.600006 -2.842500
				CHANNELS 3 Xrotation Yrotation Zrotation
				JOINT newVegas:Neck
				{
					OFFSET 0.000000 9.624100 -2.890100
					CHANNELS 3 Xrotation Yrotation Zrotation
					JOINT newVegas:Head
					{
						OFFSET 0.000000 14.068802 -1.351900
						CHANNELS 3 Xrotation Yrotation Zrotation
						JOINT newVegas:Hair_Back
						{
							OFFSET 0.000000 3.231903 -17.524799
							CHANNELS 3 Xrotation Yrotation Zrotation
							End Site
							{
								OFFSET 0.000000 19.849884 0.000000
							}
						}
						JOINT newVegas:Hair_Front
						{
							OFFSET 0.000000 31.260406 4.573800
							CHANNELS 3 Xrotation Yrotation Zrotation
							JOINT newVegas:Hair_Front1
							{
								OFFSET 0.000000 2.284103 11.993300
								CHANNELS 3 Xrotation Yrotation Zrotation
								JOINT newVegas:Hair_Front2
								{
									OFFSET 0.000000 2.284103 11.993300
									CHANNELS 3 Xrotation Yrotation Zrotation
									End Site
									{
										OFFSET 0.000000 12.208862 0.000000
									}
								}
							}
						}
						JOINT newVegas:Jowel
						{
							OFFSET 0.000000 -7.458206 6.864100
							CHANNELS 3 Xrotation Yrotation Zrotation
							End Site
							{
								OFFSET 0.000000 19.849884 0.000000
							}
						}
					}
				}
				JOINT newVegas:LeftShoulder
				{
					OFFSET 15.263000 10.923401 -0.547700
					CHANNELS 3 Xrotation Yrotation Zrotation
					JOINT newVegas:LeftArm
					{
						OFFSET 25.438599 -2.830597 -13.032500
						CHANNELS 3 Xrotation Yrotation Zrotation
						JOINT newVegas:LeftForeArm
						{
							OFFSET 29.960503 0.000000 0.000000
							CHANNELS 3 Xrotation Yrotation Zrotation
							JOINT newVegas:LeftHand
							{
								OFFSET 27.849251 0.000000 0.000000
								CHANNELS 3 Xrotation Yrotation Zrotation
								JOINT newVegas:LeftHandThumb1
								{
									OFFSET 4.487587 -3.305161 6.305391
									CHANNELS 3 Xrotation Yrotation Zrotation
									JOINT newVegas:LeftHandThumb2
									{
										OFFSET 5.480453 -3.164139 3.164143
										CHANNELS 3 Xrotation Yrotation Zrotation
										JOINT newVegas:LeftHandThumb3
										{
											OFFSET 5.159721 -2.978973 2.978967
											CHANNELS 3 Xrotation Yrotation Zrotation
											End Site
											{
												OFFSET 2.494507 5.926697 1.738678
											}
										}
									}
								}
								JOINT newVegas:LeftHandIndex1
								{
									OFFSET 18.578728 -0.527832 5.208049
									CHANNELS 3 Xrotation Yrotation Zrotation
									JOINT newVegas:LeftHandIndex2
									{
										OFFSET 3.192009 0.000000 0.000000
										CHANNELS 3 Xrotation Yrotation Zrotation
										JOINT newVegas:LeftHandIndex3
										{
											OFFSET 3.835129 0.000000 0.000000
											CHANNELS 3 Xrotation Yrotation Zrotation
											End Site
											{
												OFFSET -0.034599 3.816971 0.371180
											}
										}
									}
								}
								JOINT newVegas:LeftHandMiddle1
								{
									OFFSET 18.476105 0.000000 0.000000
									CHANNELS 3 Xrotation Yrotation Zrotation
									JOINT newVegas:LeftHandMiddle2
									{
										OFFSET 3.324875 0.000000 0.000000
										CHANNELS 3 Xrotation Yrotation Zrotation
										JOINT newVegas:LeftHandMiddle3
										{
											OFFSET 4.596550 0.000000 0.000000
											CHANNELS 3 Xrotation Yrotation Zrotation
											End Site
											{
												OFFSET 0.057701 4.578827 0.399218
											}
										}
									}
								}
								JOINT newVegas:LeftHandRing1
								{
									OFFSET 17.732719 0.121887 -4.201567
									CHANNELS 3 Xrotation Yrotation Zrotation
									JOINT newVegas:LeftHandRing2
									{
										OFFSET 2.733170 0.000000 0.000000
										CHANNELS 3 Xrotation Yrotation Zrotation
										JOINT newVegas:LeftHandRing3
										{
											OFFSET 3.178268 0.000000 0.000000
											CHANNELS 3 Xrotation Yrotation Zrotation
											End Site
											{
												OFFSET 0.119102 3.170624 0.185394
											}
										}
									}
								}
								JOINT newVegas:LeftHandPinky1
								{
									OFFSET 15.989624 -0.606689 -7.535461
									CHANNELS 3 Xrotation Yrotation Zrotation
									JOINT newVegas:LeftHandPinky2
									{
										OFFSET 2.538986 0.000000 0.000000
										CHANNELS 3 Xrotation Yrotation Zrotation
										JOINT newVegas:LeftHandPinky3
										{
											OFFSET 2.593102 0.000000 0.000000
											CHANNELS 3 Xrotation Yrotation Zrotation
											End Site
											{
												OFFSET -0.150902 2.584198 0.152708
											}
										}
									}
								}
							}
							JOINT newVegas:Left_Sleeve
							{
								OFFSET 0.267448 -0.649796 0.577675
								CHANNELS 3 Xrotation Yrotation Zrotation
								End Site
								{
									OFFSET 0.000000 15.991241 0.000000
								}
							}
							JOINT newVegas:Left_CapeC
							{
								OFFSET 15.715958 -8.608795 -6.935905
								CHANNELS 3 Xrotation Yrotation Zrotation
								JOINT newVegas:Left_CapeC1
								{
									OFFSET 0.000000 -8.688499 0.000000
									CHANNELS 3 Xrotation Yrotation Zrotation
									End Site
									{
										OFFSET 0.000000 8.688499 0.000000
									}
								}
							}
						}
						JOINT newVegas:Left_CapeB
						{
							OFFSET 26.118385 -8.608795 -7.079235
							CHANNELS 3 Xrotation Yrotation Zrotation
							JOINT newVegas:Left_CapeB1
							{
								OFFSET 0.000000 -8.688499 0.000000
								CHANNELS 3 Xrotation Yrotation Zrotation
								End Site
								{
									OFFSET 0.000000 8.688499 0.000000
								}
							}
						}
						JOINT newVegas:Left_CapeA
						{
							OFFSET 5.115639 -8.608795 -10.395809
							CHANNELS 3 Xrotation Yrotation Zrotation
							JOINT newVegas:Left_CapeA1
							{
								OFFSET 0.000000 -8.688499 0.000000
								CHANNELS 3 Xrotation Yrotation Zrotation
								End Site
								{
									OFFSET 0.000000 8.688499 0.000000
								}
							}
						}
					}
				}
				JOINT newVegas:RightShoulder
				{
					OFFSET -15.263000 10.923401 -0.547700
					CHANNELS 3 Xrotation Yrotation Zrotation
					JOINT newVegas:RightArm
					{
						OFFSET -25.438599 -2.830597 -13.032500
						CHANNELS 3 Xrotation Yrotation Zrotation
						JOINT newVegas:RightForeArm
						{
							OFFSET -29.960503 0.000000 0.000000
							CHANNELS 3 Xrotation Yrotation Zrotation
							JOINT newVegas:RightHand
							{
								OFFSET -27.849251 0.000000 0.000000
								CHANNELS 3 Xrotation Yrotation Zrotation
								JOINT newVegas:RightHandThumb1
								{
									OFFSET -4.487587 -3.305161 6.305391
									CHANNELS 3 Xrotation Yrotation Zrotation
									JOINT newVegas:RightHandThumb2
									{
										OFFSET -5.480453 -3.164139 3.164143
										CHANNELS 3 Xrotation Yrotation Zrotation
										JOINT newVegas:RightHandThumb3
										{
											OFFSET -5.159721 -2.978973 2.978967
											CHANNELS 3 Xrotation Yrotation Zrotation
											End Site
											{
												OFFSET -2.494507 5.926697 1.738678
											}
										}
									}
								}
								JOINT newVegas:RightHandIndex1
								{
									OFFSET -18.578728 -0.527832 5.208049
									CHANNELS 3 Xrotation Yrotation Zrotation
									JOINT newVegas:RightHandIndex2
									{
										OFFSET -3.192009 0.000000 0.000000
										CHANNELS 3 Xrotation Yrotation Zrotation
										JOINT newVegas:RightHandIndex3
										{
											OFFSET -3.835129 0.000000 0.000000
											CHANNELS 3 Xrotation Yrotation Zrotation
											End Site
											{
												OFFSET 0.034599 3.816971 0.371180
											}
										}
									}
								}
								JOINT newVegas:RightHandMiddle1
								{
									OFFSET -18.476105 0.000000 0.000000
									CHANNELS 3 Xrotation Yrotation Zrotation
									JOINT newVegas:RightHandMiddle2
									{
										OFFSET -3.324875 0.000000 0.000000
										CHANNELS 3 Xrotation Yrotation Zrotation
										JOINT newVegas:RightHandMiddle3
										{
											OFFSET -4.596550 0.000000 0.000000
											CHANNELS 3 Xrotation Yrotation Zrotation
											End Site
											{
												OFFSET -0.057701 4.578827 0.399218
											}
										}
									}
								}
								JOINT newVegas:RightHandRing1
								{
									OFFSET -17.732719 0.121887 -4.201567
									CHANNELS 3 Xrotation Yrotation Zrotation
									JOINT newVegas:RightHandRing2
									{
										OFFSET -2.733170 0.000000 0.000000
										CHANNELS 3 Xrotation Yrotation Zrotation
										JOINT newVegas:RightHandRing3
										{
											OFFSET -3.178268 0.000000 0.000000
											CHANNELS 3 Xrotation Yrotation Zrotation
											End Site
											{
												OFFSET -0.119102 3.170624 0.185394
											}
										}
									}
								}
								JOINT newVegas:RightHandPinky1
								{
									OFFSET -15.989624 -0.606689 -7.535461
									CHANNELS 3 Xrotation Yrotation Zrotation
									JOINT newVegas:RightHandPinky2
									{
										OFFSET -2.538986 0.000000 0.000000
										CHANNELS 3 Xrotation Yrotation Zrotation
										JOINT newVegas:RightHandPinky3
										{
											OFFSET -2.593102 0.000000 0.000000
											CHANNELS 3 Xrotation Yrotation Zrotation
											End Site
											{
												OFFSET 0.150902 2.584198 0.152708
											}
										}
									}
								}
							}
							JOINT newVegas:Right_CapeC
							{
								OFFSET -15.715958 -8.608795 -6.935905
								CHANNELS 3 Xrotation Yrotation Zrotation
								JOINT newVegas:Right_CapeC1
								{
									OFFSET 0.000000 -8.688499 0.000000
									CHANNELS 3 Xrotation Yrotation Zrotation
									End Site
									{
										OFFSET 0.000000 8.688499 0.000000
									}
								}
							}
							JOINT newVegas:Right_Sleeve
							{
								OFFSET -0.267448 -0.649994 0.577675
								CHANNELS 3 Xrotation Yrotation Zrotation
								End Site
								{
									OFFSET 0.000000 15.991302 0.000000
								}
							}
						}
						JOINT newVegas:Right_CapeA
						{
							OFFSET -5.115540 -8.608795 -10.395824
							CHANNELS 3 Xrotation Yrotation Zrotation
							JOINT newVegas:Right_CapeA1
							{
								OFFSET 0.000000 -8.688499 0.000000
								CHANNELS 3 Xrotation Yrotation Zrotation
								End Site
								{
									OFFSET 0.000000 8.688499 0.000000
								}
							}
						}
						JOINT newVegas:Right_CapeB
						{
							OFFSET -26.118187 -8.608795 -7.079266
							CHANNELS 3 Xrotation Yrotation Zrotation
							JOINT newVegas:Right_CapeB1
							{
								OFFSET 0.000000 -8.688499 0.000000
								CHANNELS 3 Xrotation Yrotation Zrotation
								End Site
								{
									OFFSET 0.000000 8.688499 0.000000
								}
							}
						}
					}
				}
				JOINT newVegas:Left_Collar
				{
					OFFSET 18.625099 8.655502 8.828100
					CHANNELS 3 Xrotation Yrotation Zrotation
					JOINT newVegas:Left_Collar1
					{
						OFFSET 14.783401 10.540405 -1.259500
						CHANNELS 3 Xrotation Yrotation Zrotation
						End Site
						{
							OFFSET 0.000000 18.199875 0.000000
						}
					}
				}
				JOINT newVegas:Collar_Back
				{
					OFFSET 0.000000 15.630707 -20.132601
					CHANNELS 3 Xrotation Yrotation Zrotation
					End Site
					{
						OFFSET 0.000000 22.523010 0.000000
					}
				}
				JOINT newVegas:Left_Peck
				{
					OFFSET 17.239599 -5.132599 25.482599
					CHANNELS 3 Xrotation Yrotation Zrotation
					End Site
					{
						OFFSET 0.000000 22.523010 0.000000
					}
				}
				JOINT newVegas:Right_Peck
				{
					OFFSET -17.239599 -5.132202 25.482599
					CHANNELS 3 Xrotation Yrotation Zrotation
					End Site
					{
						OFFSET 0.000000 22.523010 0.000000
					}
				}
				JOINT newVegas:Right_Collar
				{
					OFFSET -18.625099 8.655792 8.828100
					CHANNELS 3 Xrotation Yrotation Zrotation
					JOINT newVegas:Right_Collar1
					{
						OFFSET -14.783401 10.539993 -1.259500
						CHANNELS 3 Xrotation Yrotation Zrotation
						End Site
						{
							OFFSET 0.000000 18.199631 0.000000
						}
					}
				}
			}
		}
		JOINT newVegas:Belly
		{
			OFFSET 0.000000 -6.540398 9.014299
			CHANNELS 3 Xrotation Yrotation Zrotation
			End Site
			{
				OFFSET 0.000000 11.566666 0.000000
			}
		}
	}
	JOINT newVegas:ElvisFacialAnim_Joint
	{
		OFFSET 1.000000 -95.330101 -8.825800
		CHANNELS 3 Xrotation Yrotation Zrotation
		End Site
		{
			OFFSET 0.000000 35.315800 0.000000
		}
	}
}
MOTION
Frames: 4
Frame Time: 0.016667
-3.530777 85.134247 2.731147 -10.678414 -53.582568 -2.772447 -0.000000 0.000000 -0.000000 -25.703404 12.072447 24.945301 42.348146 -5.376541 -1.049202 -6.669739 2.334116 -18.487331 -0.000000 -0.000000 -0.000000 0.000001 -0.000001 0.000000 -28.379182 3.763984 -24.386470 58.587136 4.862650 -8.420618 -20.651886 -5.383684 20.834596 0.000000 0.000002 0.000000 -0.000001 -0.000003 -0.000001 6.697234 0.910685 -2.292517 13.440115 1.505931 -5.282126 13.440117 1.505925 -5.282120 1.595469 1.046845 -0.164662 1.595469 1.046821 -0.164649 0.000003 -0.000003 0.000001 1.595495 1.046836 -0.164658 1.595496 1.046811 -0.164656 -0.000000 -0.000002 0.000001 0.000003 -0.000003 0.000001 -0.177270 -6.033948 5.204528 -21.071653 17.785763 -57.231487 -0.000026 -126.318762 -0.000019 -6.641486 -5.398322 -3.626824 -2.154150 6.800160 9.892472 25.836118 36.182446 -25.085231 0.000002 -0.000003 -0.000005 20.887361 7.645990 -92.409611 7.469761 5.623448 -106.086860 -0.000001 0.000001 -0.000002 12.668633 7.118915 -99.980453 7.120924 5.712042 -102.555994 0.000007 -0.000001 0.000000 5.682272 8.252677 -95.779463 8.216138 5.353244 -113.878767 0.000002 0.000001 0.000002 -3.644666 8.906877 -93.940024 7.168155 5.701363 -103.031068 0.000002 -0.000002 0.000001 0.000002 0.000001 -0.000000 0.000002 0.000001 -0.000000 0.000001 0.000001 0.000000 0.000001 0.000000 -0.000000 0.000001 -0.000000 -0.000003 0.000001 0.000000 -0.000000 -0.000000 0.000001 -0.000000 10.920044 26.931045 3.130400 -46.478177 38.185846 48.496098 0.000337 110.564500 -0.000347 -26.511559 16.043016 15.588631 -8.123086 -3.695110 -18.700517 26.149296 -37.962123 25.226192 -0.000000 0.000000 -0.000002 19.570621 -6.576500 91.648523 5.944062 -4.476228 106.057654 0.000000 0.000000 0.000002 11.200831 -5.955873 99.192672 5.666689 -4.546653 102.532717 -0.000003 -0.000002 0.000004 4.287387 -6.986183 95.001579 6.537644 -4.261374 113.838135 0.000001 0.000001 -0.000000 -5.006095 -7.516084 93.188137 5.704221 -4.538177 103.006964 -0.000001 0.000002 -0.000002 -0.000003 0.000000 -0.000000 -0.000003 -0.000000 0.000002 -0.000003 -0.000000 -0.000000 0.000001 0.000002 0.000001 0.000000 0.000003 0.000002 0.000001 0.000002 0.000001 0.000000 0.000003 0.000003 0.000001 -0.000001 0.000002 0.000001 -0.000001 0.000002 0.000001 -0.000001 0.000002 0.000001 -0.000001 0.000002 0.000001 -0.000001 0.000002 0.000001 -0.000001 0.000002 0.000001 -0.000001 0.000002 -0.000000 -0.000001 0.000000 -0.000000 0.000000 -0.000000 
-3.964101 85.247139 2.236162 -10.900478 -53.071308 -2.503588 -0.000000 -0.000001 0.000000 -24.700795 12.009753 24.262183 40.419458 -5.835938 -0.506355 -5.504277 3.044204 -19.008370 0.000000 0.000002 -0.000000 0.000000 0.000002 0.000001 -28.412593 3.423779 -24.017254 59.959533 4.278601 -8.221124 -22.271790 -5.645986 18.628316 -0.000000 -0.000000 -0.000000 -0.000002 -0.000001 -0.000001 6.880902 0.458648 -2.787752 13.428627 1.385310 -5.296946 13.420767 1.411930 -5.309468 1.636113 1.063249 -0.184887 1.636120 1.063239 -0.184881 0.000003 0.000001 -0.000000 1.636121 1.063237 -0.184887 1.636186 1.063268 -0.184901 -0.000001 0.000000 0.000000 0.000003 0.000001 0.000002 -0.474786 -6.155469 3.198671 -17.792047 18.997983 -56.885999 -0.000025 -127.660662 -0.000024 -8.813713 -2.100052 4.977257 -2.188140 6.630871 9.840805 25.854674 36.200057 -25.080888 -0.000001 -0.000002 -0.000005 20.610393 7.814831 -91.789253 7.445555 5.630335 -105.840010 -0.000002 0.000002 0.000000 12.580230 7.208600 -99.250189 7.098224 5.717019 -102.328043 -0.000000 -0.000002 0.000002 5.709276 8.240767 -95.092810 8.194829 5.362621 -113.650345 0.000002 -0.000001 -0.000001 -3.440370 8.797302 -93.391738 7.145228 5.706597 -102.800317 0.000001 0.000000 -0.000002 0.000002 -0.000003 -0.000002 0.000002 -0.000003 -0.000002 0.000001 -0.000002 -0.000002 0.000001 0.000000 -0.000001 0.000001 -0.000000 -0.000003 0.000001 0.000000 -0.000001 -0.000000 0.000000 -0.000001 10.865829 26.827595 2.963929 -46.847878 38.723587 50.356563 0.000236 107.879491 -0.000251 -24.744587 13.727470 13.795282 -8.127551 -3.556529 -18.647082 26.048195 -37.885065 25.176139 0.000000 0.000003 -0.000000 19.390041 -6.733581 91.056161 5.924112 -4.481887 105.802369 0.000002 0.000000 0.000001 11.102779 -6.063333 98.288540 5.648048 -4.550740 102.297656 0.000001 0.000002 -0.000003 4.274387 -6.978758 94.402435 6.520049 -4.269077 113.601639 -0.000004 -0.000001 -0.000001 -4.791097 -7.407653 92.634939 5.686447 -4.542209 102.782374 0.000001 0.000002 -0.000000 -0.000001 0.000001 0.000001 -0.000001 -0.000001 -0.000001 -0.000001 0.000001 -0.000001 0.000001 0.000002 -0.000001 0.000001 0.000003 -0.000001 0.000001 0.000002 -0.000001 0.000001 0.000003 0.000000 -0.000000 -0.000000 -0.000000 -0.000000 -0.000000 -0.000000 -0.000000 -0.000000 -0.000000 -0.000000 -0.000000 -0.000000 -0.000000 -0.000000 -0.000000 -0.000000 -0.000000 -0.000000 -0.000000 -0.000000 -0.000000 0.000000 0.000001 -0.000000 -0.000000 -0.000001 0.000000 
-4.334115 85.354935 1.525669 -10.726860 -51.999767 -2.026335 0.000001 0.000004 -0.000000 -24.103847 11.239017 23.457711 38.129056 -5.357989 0.335376 -3.644364 2.961773 -20.019078 -0.000000 -0.000002 -0.000000 -0.000001 -0.000004 0.000001 -28.261926 3.017698 -23.608633 60.991137 3.907252 -7.820336 -23.479043 -6.435406 16.928380 0.000000 -0.000003 -0.000000 0.000001 -0.000003 0.000001 7.703130 0.243158 -3.302935 13.471026 1.247494 -5.375647 13.463737 1.291646 -5.383116 1.618911 1.032444 -0.186550 1.618894 1.032451 -0.186555 0.000001 0.000001 -0.000003 1.618840 1.032443 -0.186551 1.618979 1.032477 -0.186558 0.000001 0.000002 -0.000002 0.000001 0.000001 -0.000001 -0.604219 -6.510279 2.042942 -15.274320 19.486415 -56.458084 0.000002 -128.879604 -0.000002 -13.542295 1.471575 15.982702 -2.260595 6.272416 9.731076 25.893621 36.237224 -25.070921 0.000003 -0.000002 -0.000003 20.016846 8.155003 -90.469339 7.394028 5.644636 -105.315397 -0.000001 0.000001 0.000001 12.388805 7.393772 -97.702038 7.049937 5.727313 -101.843769 0.000000 -0.000003 0.000003 5.767028 8.220476 -93.638246 8.149367 5.382203 -113.164849 0.000000 0.000001 0.000001 -3.004404 8.580172 -92.228051 7.096449 5.717407 -102.310285 0.000000 0.000002 -0.000001 0.000000 -0.000002 -0.000000 0.000000 -0.000002 -0.000000 0.000000 -0.000002 0.000000 0.000001 0.000001 0.000001 0.000001 0.000001 0.000002 0.000001 0.000001 0.000001 0.000000 0.000001 0.000001 10.874075 26.686425 2.331215 -47.669891 38.728966 52.535670 -0.000296 105.112650 0.000282 -23.149345 9.982433 13.220411 -8.137357 -3.262907 -18.533833 25.834221 -37.721185 25.070315 0.000001 -0.000002 -0.000003 19.001470 -7.055801 89.797043 5.881618 -4.493664 105.259253 -0.000001 -0.000002 -0.000000 10.888982 -6.283820 96.371517 5.608330 -4.559197 101.797693 0.000002 -0.000003 0.000001 4.247065 -6.963845 93.132464 6.482527 -4.285245 113.098384 0.000002 -0.000001 0.000000 -4.332474 -7.193254 91.460106 5.648598 -4.550621 102.304725 -0.000001 -0.000000 0.000001 -0.000002 0.000001 0.000001 -0.000001 -0.000001 0.000000 -0.000002 0.000001 -0.000001 -0.000001 -0.000001 0.000002 -0.000001 0.000000 0.000004 -0.000001 -0.000001 0.000002 -0.000001 0.000000 0.000005 0.000001 -0.000002 -0.000001 0.000001 -0.000002 -0.000001 0.000001 -0.000002 -0.000001 0.000001 -0.000002 -0.000001 0.000001 -0.000002 -0.000001 0.000001 -0.000002 -0.000001 0.000001 -0.000002 -0.000001 0.000000 -0.000000 -0.000000 0.000001 0.000004 -0.000000 
-4.596201 85.355965 0.808135 -10.376569 -50.460946 -1.501244 -0.000000 0.000003 0.000000 -24.996764 9.467043 23.098651 36.449974 -4.855511 1.347514 0.854205 1.901221 -22.134005 0.000000 0.000001 -0.000000 -0.000001 -0.000003 0.000002 -27.983475 2.534267 -23.215682 62.063730 3.657440 -7.257032 -24.808178 -7.645191 15.218577 0.000000 0.000001 -0.000000 0.000004 0.000001 -0.000002 9.082626 0.213211 -3.751952 13.571644 1.134050 -5.519535 13.568762 1.181521 -5.516786 1.538386 0.967477 -0.182117 1.538390 0.967490 -0.182125 0.000002 -0.000001 0.000000 1.538379 0.967481 -0.182121 1.538388 0.967480 -0.182115 -0.000001 0.000001 -0.000001 0.000002 -0.000001 0.000001 -0.610944 -7.055529 1.499516 -13.733009 19.141723 -55.614419 -0.000002 -129.834615 0.000003 -19.817037 3.436059 27.557080 -2.360270 5.784485 9.581069 25.946453 36.287767 -25.056972 -0.000000 -0.000001 -0.000001 19.194874 8.579360 -88.660049 7.323518 5.663377 -104.599860 0.000003 -0.000001 0.000003 12.119555 7.635042 -95.591387 6.983967 5.740695 -101.183338 0.000000 0.000000 -0.000001 5.846698 8.203603 -91.657450 8.087088 5.408306 -112.502621 0.000001 -0.000001 0.000001 -2.404180 8.317364 -90.638789 7.029814 5.731459 -101.642176 0.000001 0.000000 0.000001 0.000003 -0.000001 -0.000001 0.000003 -0.000001 -0.000001 0.000002 -0.000000 -0.000001 -0.000001 -0.000003 -0.000002 -0.000001 -0.000003 0.000000 -0.000001 -0.000003 -0.000002 -0.000002 -0.000002 -0.000002 10.915529 26.508837 1.381151 -49.008800 38.270154 54.704979 -0.000512 102.389330 0.000481 -21.485270 5.843203 12.774788 -8.151701 -2.862873 -18.379846 25.543929 -37.497223 24.927967 0.000004 -0.000001 -0.000001 18.460345 -7.470881 88.074347 5.823471 -4.509089 104.518225 -0.000001 0.000002 -0.000005 10.585431 -6.567955 93.757590 5.554068 -4.570173 101.115596 -0.000002 -0.000000 -0.000003 4.210437 -6.945301 91.402534 6.431085 -4.306760 112.411643 0.000003 -0.000003 0.000003 -3.701442 -6.935077 89.854977 5.596821 -4.561582 101.653104 0.000000 0.000001 0.000002 -0.000003 0.000000 0.000001 -0.000001 -0.000002 -0.000002 -0.000003 -0.000000 -0.000000 -0.000000 -0.000003 0.000001 -0.000000 -0.000002 0.000001 -0.000000 -0.000003 0.000001 -0.000000 -0.000002 0.000003 -0.000002 -0.000002 0.000001 -0.000002 -0.000002 0.000001 -0.000002 -0.000002 0.000001 -0.000002 -0.000002 0.000001 -0.000002 -0.000002 0.000001 -0.000002 -0.000002 0.000001 -0.000002 -0.000002 0.000001 0.000000 0.000000 -0.000000 -0.000000 0.000003 0.000000 
